<svg width="35.000000" height="48.000000" viewBox="0 0 35 48" fill="none" xmlns="http://www.w3.org/2000/svg" xmlns:xlink="http://www.w3.org/1999/xlink">
	<desc>
			Created with Pixso.
	</desc>
	<defs>
		<clipPath id="clip2_3">
			<rect id="IMAGE" width="35.000000" height="48.000000" fill="white" fill-opacity="0"/>
		</clipPath>
	</defs>
	<g clip-path="url(#clip2_3)">
		<path id="Vector" d="M0.25 6.95C0.25 3.57 2.86 0.84 6.1 0.84C9.33 0.84 11.95 3.57 11.95 6.95C11.95 10.32 9.33 13.05 6.1 13.05C2.86 13.05 0.25 10.32 0.25 6.95ZM34.72 23.3C34.72 19.93 32.1 17.2 28.86 17.2L6.1 17.2C5.3 17.2 4.53 17.36 3.84 17.67C1.73 18.59 0.25 20.77 0.25 23.3L0.25 41.71C0.25 45.08 2.86 47.81 6.1 47.81C9.33 47.81 11.95 45.08 11.95 41.71L11.95 29.41L23.01 29.41L23.01 41.71C23.01 45.08 25.63 47.81 28.86 47.81C32.1 47.81 34.72 45.08 34.72 41.71L34.72 23.34L34.72 23.3ZM28.86 0.84C25.63 0.84 23.01 3.57 23.01 6.95C23.01 10.32 25.63 13.05 28.86 13.05C32.1 13.05 34.72 10.32 34.72 6.95C34.72 3.57 32.1 0.84 28.86 0.84Z" fill="#000000" fill-opacity="1.000000" fill-rule="evenodd"/>
	</g>
</svg>
