<svg width="222.000000" height="199.000000" viewBox="0 0 222 199" fill="none" xmlns="http://www.w3.org/2000/svg" xmlns:xlink="http://www.w3.org/1999/xlink">
	<desc>
			Created with Pixso.
	</desc>
	<defs/>
	<path id="Vector" d="M220.76 173.25C219.73 172.63 218.49 173.25 217.98 174.48L212.21 189.25C193.16 131.63 154.86 88.41 114.5 57.62C72.9 25.98 28.83 7.38 0.92 0L0 4.8C27.49 12.06 71.15 30.41 112.33 61.81C152.28 92.22 189.77 134.58 208.3 190.73L196.15 183.96C195.12 183.34 193.89 183.96 193.37 185.19C192.86 186.42 193.37 187.9 194.4 188.51L211.18 197.87C212.21 198.49 213.45 197.87 213.96 196.64L221.79 176.57C222.3 175.34 221.79 173.86 220.76 173.25Z" fill="#000000" fill-opacity="1.000000" fill-rule="nonzero"/>
</svg>
